<svg xmlns="http://www.w3.org/2000/svg" xmlns:xlink="http://www.w3.org/1999/xlink" width="50" zoomAndPan="magnify" viewBox="0 0 37.5 37.499999" height="50" preserveAspectRatio="xMidYMid meet" version="1.0"><defs><clipPath id="8f8765eb6f"><path d="M 0 0 L 37.007812 0 L 37.007812 37.007812 L 0 37.007812 Z M 0 0 " clip-rule="nonzero"/></clipPath><clipPath id="04a92c5b1c"><path d="M 8.058594 7.042969 L 28.785156 7.042969 L 28.785156 24 L 8.058594 24 Z M 8.058594 7.042969 " clip-rule="nonzero"/></clipPath><clipPath id="b548da7dce"><path d="M 8.058594 14 L 24 14 L 24 29.988281 L 8.058594 29.988281 Z M 8.058594 14 " clip-rule="nonzero"/></clipPath><clipPath id="512ff973c8"><path d="M 11 35 L 26 35 L 26 37.007812 L 11 37.007812 Z M 11 35 " clip-rule="nonzero"/></clipPath></defs><g clip-path="url(#8f8765eb6f)"><path fill="#ffffff" d="M 0 0 L 37.007812 0 L 37.007812 37.007812 L 0 37.007812 Z M 0 0 " fill-opacity="1" fill-rule="nonzero"/><path fill="#ffffff" d="M 0 0 L 37.007812 0 L 37.007812 37.007812 L 0 37.007812 Z M 0 0 " fill-opacity="1" fill-rule="nonzero"/></g><g clip-path="url(#04a92c5b1c)"><path fill="#27272a" d="M 10.015625 7.582031 C 9.402344 7.933594 8.917969 8.425781 8.578125 9.003906 C 8.242188 9.589844 8.058594 10.257812 8.058594 10.964844 L 8.058594 17.742188 C 8.058594 18.449219 8.242188 19.113281 8.578125 19.699219 C 8.917969 20.28125 9.402344 20.769531 10.015625 21.128906 L 13.582031 23.1875 C 14.113281 23.5 14.789062 23.316406 15.097656 22.785156 C 15.410156 22.25 15.226562 21.574219 14.695312 21.265625 L 11.128906 19.207031 L 11.125 19.207031 C 10.855469 19.046875 10.640625 18.839844 10.5 18.597656 C 10.363281 18.351562 10.289062 18.0625 10.289062 17.742188 L 10.289062 10.964844 C 10.289062 10.648438 10.363281 10.355469 10.5 10.117188 L 10.5 10.113281 C 10.640625 9.871094 10.855469 9.660156 11.128906 9.503906 C 11.402344 9.347656 11.6875 9.273438 11.972656 9.273438 C 12.257812 9.273438 12.546875 9.347656 12.816406 9.503906 L 19.339844 13.273438 L 19.34375 13.273438 L 25.875 17.039062 C 26.148438 17.195312 26.355469 17.40625 26.5 17.652344 C 26.636719 17.894531 26.714844 18.183594 26.714844 18.503906 C 26.714844 18.804688 26.644531 19.082031 26.527344 19.308594 C 26.519531 19.324219 26.507812 19.339844 26.503906 19.351562 C 26.359375 19.601562 26.148438 19.8125 25.878906 19.964844 C 25.347656 20.269531 25.167969 20.953125 25.472656 21.480469 C 25.773438 22.011719 26.457031 22.195312 26.984375 21.890625 C 27.601562 21.53125 28.09375 21.042969 28.425781 20.464844 C 28.441406 20.441406 28.453125 20.417969 28.464844 20.390625 C 28.777344 19.824219 28.945312 19.179688 28.945312 18.5 C 28.945312 17.796875 28.765625 17.128906 28.425781 16.542969 L 28.425781 16.539062 C 28.09375 15.964844 27.601562 15.472656 26.984375 15.117188 L 20.464844 11.351562 L 13.929688 7.582031 C 13.308594 7.226562 12.644531 7.042969 11.972656 7.042969 C 11.304688 7.042969 10.640625 7.226562 10.015625 7.582031 Z M 10.015625 7.582031 " fill-opacity="1" fill-rule="evenodd"/></g><g clip-path="url(#b548da7dce)"><path fill="#f97316" d="M 8.058594 24.386719 L 8.058594 26.039062 C 8.058594 26.746094 8.242188 27.410156 8.578125 27.996094 C 8.917969 28.582031 9.402344 29.070312 10.015625 29.425781 C 10.039062 29.4375 10.0625 29.453125 10.085938 29.460938 C 10.6875 29.796875 11.328125 29.960938 11.972656 29.960938 C 12.636719 29.960938 13.304688 29.78125 13.921875 29.425781 L 21.242188 25.203125 C 21.863281 24.84375 22.351562 24.355469 22.6875 23.777344 L 22.6875 23.773438 C 23.023438 23.1875 23.207031 22.523438 23.207031 21.816406 C 23.207031 21.113281 23.023438 20.449219 22.6875 19.863281 C 22.347656 19.28125 21.863281 18.789062 21.242188 18.433594 L 14.792969 14.710938 C 14.617188 14.613281 14.433594 14.5625 14.242188 14.5625 C 13.855469 14.5625 13.484375 14.765625 13.28125 15.121094 C 12.976562 15.65625 13.15625 16.332031 13.691406 16.636719 L 20.140625 20.355469 C 20.410156 20.515625 20.625 20.722656 20.761719 20.964844 C 20.902344 21.207031 20.976562 21.5 20.976562 21.816406 C 20.976562 22.136719 20.902344 22.425781 20.761719 22.664062 C 20.621094 22.914062 20.40625 23.128906 20.140625 23.28125 L 12.820312 27.5 C 12.546875 27.660156 12.261719 27.734375 11.972656 27.734375 C 11.699219 27.734375 11.429688 27.667969 11.171875 27.53125 C 11.160156 27.519531 11.144531 27.511719 11.128906 27.5 C 10.855469 27.339844 10.640625 27.128906 10.5 26.890625 C 10.363281 26.648438 10.289062 26.359375 10.289062 26.039062 L 10.289062 24.386719 C 10.289062 23.773438 9.789062 23.273438 9.171875 23.273438 C 8.558594 23.273438 8.058594 23.769531 8.058594 24.386719 Z M 8.058594 24.386719 " fill-opacity="1" fill-rule="evenodd"/></g><g clip-path="url(#512ff973c8)"><path stroke-linecap="butt" transform="matrix(0.740132, 0, 0, 0.740132, 12.582236, 35.526313)" fill="none" stroke-linejoin="miter" d="M -0.000277292 2.00167 L 16.001946 2.00167 " stroke="#ffffff" stroke-width="4" stroke-opacity="1" stroke-miterlimit="4"/></g></svg>