<svg xmlns="http://www.w3.org/2000/svg" xmlns:xlink="http://www.w3.org/1999/xlink" width="500" zoomAndPan="magnify" viewBox="0 0 375 374.999991" height="500" preserveAspectRatio="xMidYMid meet" version="1.0"><defs><g/><clipPath id="27ce170038"><path d="M 94.617188 16.464844 L 280.617188 16.464844 L 280.617188 162 L 94.617188 162 Z M 94.617188 16.464844 " clip-rule="nonzero"/></clipPath><clipPath id="2fbe992200"><path d="M 94.617188 83 L 230 83 L 230 220.464844 L 94.617188 220.464844 Z M 94.617188 83 " clip-rule="nonzero"/></clipPath></defs><g clip-path="url(#27ce170038)"><path fill="#27272a" d="M 112.015625 21.257812 C 106.554688 24.390625 102.238281 28.75 99.230469 33.914062 C 96.226562 39.121094 94.617188 45.046875 94.617188 51.355469 L 94.617188 111.640625 C 94.617188 117.90625 96.226562 123.832031 99.230469 129.042969 C 102.238281 134.207031 106.554688 138.566406 112.015625 141.742188 L 143.726562 160.074219 C 148.464844 162.824219 154.476562 161.214844 157.230469 156.472656 C 159.980469 151.734375 158.371094 145.722656 153.632812 142.96875 L 121.921875 124.636719 L 121.878906 124.636719 C 119.46875 123.242188 117.5625 121.378906 116.335938 119.21875 C 115.105469 117.058594 114.429688 114.476562 114.429688 111.640625 L 114.429688 51.355469 C 114.429688 48.519531 115.105469 45.9375 116.335938 43.820312 L 116.335938 43.777344 C 117.5625 41.621094 119.46875 39.757812 121.921875 38.359375 C 124.335938 36.960938 126.875 36.285156 129.414062 36.285156 C 131.957031 36.285156 134.539062 36.960938 136.910156 38.359375 L 194.949219 71.890625 L 194.992188 71.890625 L 253.074219 105.375 C 255.488281 106.773438 257.351562 108.636719 258.621094 110.835938 C 259.851562 112.996094 260.527344 115.535156 260.527344 118.414062 C 260.527344 121.082031 259.933594 123.539062 258.875 125.570312 C 258.792969 125.695312 258.707031 125.824219 258.664062 125.949219 C 257.394531 128.152344 255.488281 130.058594 253.117188 131.410156 C 248.375 134.121094 246.769531 140.175781 249.476562 144.875 C 252.1875 149.617188 258.242188 151.222656 262.941406 148.515625 C 268.445312 145.339844 272.804688 140.980469 275.769531 135.855469 C 275.894531 135.644531 276.023438 135.433594 276.105469 135.179688 C 278.902344 130.140625 280.382812 124.425781 280.382812 118.371094 C 280.382812 112.105469 278.773438 106.179688 275.769531 100.972656 L 275.769531 100.929688 C 272.804688 95.808594 268.445312 91.449219 262.941406 88.273438 L 204.941406 54.785156 L 146.816406 21.257812 C 141.3125 18.082031 135.386719 16.472656 129.414062 16.472656 C 123.488281 16.472656 117.5625 18.082031 112.015625 21.257812 Z M 112.015625 21.257812 " fill-opacity="1" fill-rule="evenodd"/></g><g clip-path="url(#2fbe992200)"><path fill="#f97316" d="M 94.617188 170.742188 L 94.617188 185.429688 C 94.617188 191.695312 96.226562 197.625 99.230469 202.832031 C 102.238281 208.039062 106.554688 212.398438 112.015625 215.53125 C 112.226562 215.660156 112.441406 215.785156 112.652344 215.871094 C 117.984375 218.832031 123.699219 220.316406 129.414062 220.316406 C 135.34375 220.316406 141.269531 218.707031 146.773438 215.53125 L 211.882812 177.980469 C 217.386719 174.804688 221.75 170.445312 224.710938 165.320312 L 224.710938 165.28125 C 227.71875 160.074219 229.328125 154.144531 229.328125 147.878906 C 229.328125 141.613281 227.71875 135.6875 224.710938 130.480469 C 221.707031 125.316406 217.386719 120.953125 211.882812 117.78125 L 154.519531 84.675781 C 152.953125 83.785156 151.304688 83.363281 149.609375 83.363281 C 146.179688 83.363281 142.878906 85.140625 141.058594 88.316406 C 138.347656 93.054688 139.957031 99.066406 144.699219 101.777344 L 202.0625 134.882812 C 204.476562 136.28125 206.378906 138.144531 207.609375 140.300781 C 208.835938 142.460938 209.511719 145.042969 209.511719 147.878906 C 209.511719 150.714844 208.835938 153.300781 207.609375 155.414062 C 206.339844 157.617188 204.433594 159.523438 202.0625 160.875 L 136.953125 198.429688 C 134.539062 199.824219 132 200.503906 129.414062 200.503906 C 127.003906 200.503906 124.589844 199.910156 122.304688 198.683594 C 122.175781 198.597656 122.050781 198.511719 121.921875 198.429688 C 119.46875 196.988281 117.5625 195.125 116.335938 193.007812 C 115.105469 190.851562 114.429688 188.269531 114.429688 185.429688 L 114.429688 170.742188 C 114.429688 165.28125 109.984375 160.835938 104.523438 160.835938 C 99.0625 160.835938 94.617188 165.238281 94.617188 170.742188 Z M 94.617188 170.742188 " fill-opacity="1" fill-rule="evenodd"/></g><g fill="#f97316" fill-opacity="1"><g transform="translate(27.064196, 347.232282)"><g><path d="M 8.203125 0 L 8.203125 -82.015625 L 18.53125 -82.015625 L 18.53125 -33.25 L 34.265625 -33.25 L 49.3125 -57.296875 L 60.78125 -57.296875 L 44.484375 -31.6875 C 49.878906 -30.113281 54.09375 -27.171875 57.125 -22.859375 C 60.15625 -18.554688 61.671875 -13.554688 61.671875 -7.859375 L 61.671875 0 L 51.234375 0 L 51.234375 -7.859375 C 51.234375 -11.003906 50.539062 -13.8125 49.15625 -16.28125 C 47.769531 -18.757812 45.835938 -20.726562 43.359375 -22.1875 C 40.890625 -23.644531 38.046875 -24.375 34.828125 -24.375 L 18.53125 -24.375 L 18.53125 0 Z M 8.203125 0 "/></g></g></g><g fill="#f97316" fill-opacity="1"><g transform="translate(95.25926, 347.232282)"><g><path d="M 37.296875 0 C 31.003906 0 25.421875 -1.175781 20.546875 -3.53125 C 15.679688 -5.894531 11.882812 -9.226562 9.15625 -13.53125 C 6.425781 -17.84375 5.0625 -22.878906 5.0625 -28.640625 C 5.0625 -34.335938 6.21875 -39.453125 8.53125 -43.984375 C 10.851562 -48.515625 14.070312 -52.085938 18.1875 -54.703125 C 22.3125 -57.328125 27.109375 -58.640625 32.578125 -58.640625 C 38.492188 -58.640625 43.414062 -57.363281 47.34375 -54.8125 C 51.28125 -52.269531 54.222656 -48.84375 56.171875 -44.53125 C 58.117188 -40.226562 59.09375 -35.421875 59.09375 -30.109375 C 59.09375 -29.285156 59.070312 -28.421875 59.03125 -27.515625 C 59 -26.617188 58.90625 -25.835938 58.75 -25.171875 L 16.0625 -25.171875 C 16.4375 -21.648438 17.597656 -18.671875 19.546875 -16.234375 C 21.492188 -13.796875 23.984375 -11.957031 27.015625 -10.71875 C 30.046875 -9.488281 33.398438 -8.875 37.078125 -8.875 L 52.015625 -8.875 L 52.015625 0 Z M 15.953125 -32.46875 L 48.640625 -32.46875 C 48.640625 -33.894531 48.488281 -35.410156 48.1875 -37.015625 C 47.894531 -38.628906 47.375 -40.203125 46.625 -41.734375 C 45.875 -43.265625 44.878906 -44.648438 43.640625 -45.890625 C 42.410156 -47.128906 40.875 -48.125 39.03125 -48.875 C 37.195312 -49.625 35.046875 -50 32.578125 -50 C 29.953125 -50 27.644531 -49.488281 25.65625 -48.46875 C 23.675781 -47.457031 21.972656 -46.109375 20.546875 -44.421875 C 19.128906 -42.742188 18.046875 -40.851562 17.296875 -38.75 C 16.546875 -36.65625 16.097656 -34.5625 15.953125 -32.46875 Z M 15.953125 -32.46875 "/></g></g></g><g fill="#f97316" fill-opacity="1"><g transform="translate(159.297452, 347.232282)"><g><path d="M 8.203125 0 L 8.203125 -57.296875 L 18.65625 -57.296875 L 18.65625 0 Z M 13.46875 -66.390625 C 11.601562 -66.390625 9.976562 -67.082031 8.59375 -68.46875 C 7.207031 -69.851562 6.515625 -71.484375 6.515625 -73.359375 C 6.515625 -75.234375 7.207031 -76.863281 8.59375 -78.25 C 9.976562 -79.632812 11.601562 -80.328125 13.46875 -80.328125 C 15.34375 -80.328125 16.972656 -79.632812 18.359375 -78.25 C 19.742188 -76.863281 20.4375 -75.234375 20.4375 -73.359375 C 20.4375 -71.484375 19.742188 -69.851562 18.359375 -68.46875 C 16.972656 -67.082031 15.34375 -66.390625 13.46875 -66.390625 Z M 13.46875 -66.390625 "/></g></g></g><g fill="#f97316" fill-opacity="1"><g transform="translate(186.036204, 347.232282)"><g><path d="M 8.203125 0 L 8.203125 -33.140625 C 8.203125 -38.234375 9.34375 -42.6875 11.625 -46.5 C 13.90625 -50.320312 17.066406 -53.300781 21.109375 -55.4375 C 25.160156 -57.570312 29.769531 -58.640625 34.9375 -58.640625 C 40.175781 -58.640625 44.800781 -57.570312 48.8125 -55.4375 C 52.820312 -53.300781 55.96875 -50.320312 58.25 -46.5 C 60.53125 -42.6875 61.671875 -38.234375 61.671875 -33.140625 L 61.671875 0 L 51.34375 0 L 51.34375 -33.03125 C 51.34375 -36.476562 50.570312 -39.453125 49.03125 -41.953125 C 47.5 -44.460938 45.476562 -46.390625 42.96875 -47.734375 C 40.457031 -49.085938 37.78125 -49.765625 34.9375 -49.765625 C 32.09375 -49.765625 29.414062 -49.085938 26.90625 -47.734375 C 24.394531 -46.390625 22.367188 -44.460938 20.828125 -41.953125 C 19.296875 -39.453125 18.53125 -36.476562 18.53125 -33.03125 L 18.53125 0 Z M 8.203125 0 "/></g></g></g><g fill="#f97316" fill-opacity="1"><g transform="translate(255.916491, 347.232282)"><g><path d="M 27.75 0 C 22.65625 0 18.664062 -1.457031 15.78125 -4.375 C 12.894531 -7.300781 11.453125 -11.273438 11.453125 -16.296875 L 11.453125 -71.671875 L 21.796875 -71.671875 L 21.796875 -16.96875 C 21.796875 -14.488281 22.488281 -12.519531 23.875 -11.0625 C 25.257812 -9.601562 27.1875 -8.875 29.65625 -8.875 L 41.234375 -8.875 L 41.234375 0 Z M 1.578125 -48.421875 L 1.578125 -57.296875 L 41.453125 -57.296875 L 41.453125 -48.421875 Z M 1.578125 -48.421875 "/></g></g></g><g fill="#f97316" fill-opacity="1"><g transform="translate(301.641997, 347.232282)"><g><path d="M 35.953125 0 C 30.035156 0 24.753906 -1.269531 20.109375 -3.8125 C 15.460938 -6.363281 11.789062 -9.789062 9.09375 -14.09375 C 6.40625 -18.40625 5.0625 -23.253906 5.0625 -28.640625 C 5.0625 -34.035156 6.40625 -38.882812 9.09375 -43.1875 C 11.789062 -47.5 15.460938 -50.925781 20.109375 -53.46875 C 24.753906 -56.019531 30.035156 -57.296875 35.953125 -57.296875 L 42.6875 -57.296875 L 42.6875 -48.421875 L 35.609375 -48.421875 C 31.796875 -48.421875 28.367188 -47.539062 25.328125 -45.78125 C 22.296875 -44.019531 19.898438 -41.640625 18.140625 -38.640625 C 16.378906 -35.648438 15.5 -32.316406 15.5 -28.640625 C 15.5 -24.972656 16.378906 -21.640625 18.140625 -18.640625 C 19.898438 -15.648438 22.296875 -13.273438 25.328125 -11.515625 C 28.367188 -9.753906 31.796875 -8.875 35.609375 -8.875 L 42.6875 -8.875 L 42.6875 0 Z M 35.953125 0 "/></g></g></g></svg>