<svg xmlns="http://www.w3.org/2000/svg" xmlns:xlink="http://www.w3.org/1999/xlink" width="500" zoomAndPan="magnify" viewBox="0 0 375 74.999997" height="100" preserveAspectRatio="xMidYMid meet" version="1.0"><defs><g/><clipPath id="5d0f754c1b"><path d="M 0 0 L 68.25 0 L 68.25 54 L 0 54 Z M 0 0 " clip-rule="nonzero"/></clipPath></defs><g clip-path="url(#5d0f754c1b)"><path fill="#27272a" d="M 6.402344 1.761719 C 4.390625 2.914062 2.804688 4.519531 1.699219 6.417969 C 0.59375 8.335938 0 10.515625 0 12.835938 L 0 35.015625 C 0 37.320312 0.59375 39.5 1.699219 41.417969 C 2.804688 43.316406 4.390625 44.921875 6.402344 46.089844 L 18.066406 52.832031 C 19.8125 53.847656 22.023438 53.253906 23.035156 51.511719 C 24.046875 49.765625 23.457031 47.554688 21.710938 46.542969 L 10.046875 39.796875 L 10.03125 39.796875 C 9.144531 39.285156 8.441406 38.597656 7.988281 37.804688 C 7.539062 37.007812 7.289062 36.058594 7.289062 35.015625 L 7.289062 12.835938 C 7.289062 11.792969 7.539062 10.84375 7.988281 10.0625 L 7.988281 10.046875 C 8.441406 9.253906 9.144531 8.570312 10.046875 8.054688 C 10.933594 7.542969 11.867188 7.292969 12.804688 7.292969 C 13.738281 7.292969 14.6875 7.542969 15.558594 8.054688 L 36.914062 20.390625 L 36.929688 20.390625 L 58.296875 32.710938 C 59.1875 33.226562 59.871094 33.910156 60.339844 34.71875 C 60.789062 35.515625 61.039062 36.449219 61.039062 37.507812 C 61.039062 38.488281 60.820312 39.390625 60.429688 40.140625 C 60.402344 40.1875 60.371094 40.234375 60.355469 40.28125 C 59.886719 41.089844 59.1875 41.789062 58.3125 42.289062 C 56.570312 43.285156 55.976562 45.511719 56.972656 47.242188 C 57.96875 48.988281 60.199219 49.578125 61.925781 48.582031 C 63.953125 47.414062 65.554688 45.808594 66.644531 43.925781 C 66.691406 43.847656 66.738281 43.769531 66.769531 43.675781 C 67.796875 41.820312 68.34375 39.71875 68.34375 37.492188 C 68.34375 35.1875 67.75 33.007812 66.644531 31.089844 L 66.644531 31.074219 C 65.554688 29.191406 63.953125 27.585938 61.925781 26.417969 L 40.589844 14.097656 L 19.203125 1.761719 C 17.179688 0.59375 15 0.00390625 12.804688 0.00390625 C 10.621094 0.00390625 8.441406 0.59375 6.402344 1.761719 Z M 6.402344 1.761719 " fill-opacity="1" fill-rule="evenodd"/></g><path fill="#f97316" d="M 0 56.757812 L 0 62.164062 C 0 64.46875 0.59375 66.648438 1.699219 68.566406 C 2.804688 70.480469 4.390625 72.085938 6.402344 73.238281 C 6.480469 73.285156 6.558594 73.332031 6.636719 73.363281 C 8.597656 74.453125 10.699219 74.996094 12.804688 74.996094 C 14.984375 74.996094 17.164062 74.40625 19.1875 73.238281 L 43.144531 59.421875 C 45.167969 58.253906 46.773438 56.648438 47.863281 54.765625 L 47.863281 54.75 C 48.96875 52.832031 49.558594 50.652344 49.558594 48.347656 C 49.558594 46.042969 48.96875 43.863281 47.863281 41.945312 C 46.757812 40.046875 45.167969 38.441406 43.144531 37.273438 L 22.039062 25.09375 C 21.460938 24.765625 20.855469 24.613281 20.230469 24.613281 C 18.96875 24.613281 17.753906 25.265625 17.085938 26.433594 C 16.089844 28.179688 16.679688 30.390625 18.425781 31.386719 L 39.53125 43.566406 C 40.417969 44.082031 41.117188 44.765625 41.570312 45.558594 C 42.023438 46.355469 42.269531 47.304688 42.269531 48.347656 C 42.269531 49.390625 42.023438 50.339844 41.570312 51.121094 C 41.101562 51.929688 40.402344 52.632812 39.53125 53.128906 L 15.574219 66.945312 C 14.6875 67.457031 13.753906 67.707031 12.804688 67.707031 C 11.914062 67.707031 11.027344 67.488281 10.1875 67.039062 C 10.140625 67.007812 10.09375 66.976562 10.046875 66.945312 C 9.144531 66.414062 8.441406 65.730469 7.988281 64.953125 C 7.539062 64.15625 7.289062 63.207031 7.289062 62.164062 L 7.289062 56.757812 C 7.289062 54.75 5.652344 53.113281 3.644531 53.113281 C 1.636719 53.113281 0 54.734375 0 56.757812 Z M 0 56.757812 " fill-opacity="1" fill-rule="evenodd"/><g fill="#f97316" fill-opacity="1"><g transform="translate(84.774156, 74.535753)"><g><path d="M 7.46875 0 L 7.46875 -74.6875 L 16.875 -74.6875 L 16.875 -30.28125 L 31.203125 -30.28125 L 44.921875 -52.171875 L 55.34375 -52.171875 L 40.515625 -28.859375 C 45.421875 -27.421875 49.253906 -24.738281 52.015625 -20.8125 C 54.785156 -16.894531 56.171875 -12.34375 56.171875 -7.15625 L 56.171875 0 L 46.65625 0 L 46.65625 -7.15625 C 46.65625 -10.019531 46.023438 -12.578125 44.765625 -14.828125 C 43.503906 -17.085938 41.742188 -18.878906 39.484375 -20.203125 C 37.234375 -21.535156 34.644531 -22.203125 31.71875 -22.203125 L 16.875 -22.203125 L 16.875 0 Z M 7.46875 0 "/></g></g></g><g fill="#f97316" fill-opacity="1"><g transform="translate(146.874431, 74.535753)"><g><path d="M 33.96875 0 C 28.238281 0 23.15625 -1.070312 18.71875 -3.21875 C 14.289062 -5.375 10.832031 -8.410156 8.34375 -12.328125 C 5.851562 -16.253906 4.609375 -20.84375 4.609375 -26.09375 C 4.609375 -31.269531 5.664062 -35.921875 7.78125 -40.046875 C 9.894531 -44.179688 12.828125 -47.441406 16.578125 -49.828125 C 20.328125 -52.210938 24.691406 -53.40625 29.671875 -53.40625 C 35.054688 -53.40625 39.539062 -52.242188 43.125 -49.921875 C 46.707031 -47.609375 49.382812 -44.488281 51.15625 -40.5625 C 52.925781 -36.644531 53.8125 -32.265625 53.8125 -27.421875 C 53.8125 -26.671875 53.796875 -25.882812 53.765625 -25.0625 C 53.734375 -24.25 53.648438 -23.535156 53.515625 -22.921875 L 14.625 -22.921875 C 14.96875 -19.710938 16.023438 -17 17.796875 -14.78125 C 19.578125 -12.5625 21.847656 -10.890625 24.609375 -9.765625 C 27.367188 -8.640625 30.421875 -8.078125 33.765625 -8.078125 L 47.375 -8.078125 L 47.375 0 Z M 14.53125 -29.5625 L 44.296875 -29.5625 C 44.296875 -30.863281 44.160156 -32.242188 43.890625 -33.703125 C 43.617188 -35.171875 43.140625 -36.601562 42.453125 -38 C 41.773438 -39.40625 40.875 -40.671875 39.75 -41.796875 C 38.625 -42.921875 37.222656 -43.820312 35.546875 -44.5 C 33.878906 -45.1875 31.921875 -45.53125 29.671875 -45.53125 C 27.285156 -45.53125 25.1875 -45.066406 23.375 -44.140625 C 21.570312 -43.222656 20.019531 -41.992188 18.71875 -40.453125 C 17.425781 -38.921875 16.4375 -37.203125 15.75 -35.296875 C 15.070312 -33.390625 14.664062 -31.476562 14.53125 -29.5625 Z M 14.53125 -29.5625 "/></g></g></g><g fill="#f97316" fill-opacity="1"><g transform="translate(205.189355, 74.535753)"><g><path d="M 7.46875 0 L 7.46875 -52.171875 L 16.984375 -52.171875 L 16.984375 0 Z M 12.265625 -60.46875 C 10.566406 -60.46875 9.082031 -61.097656 7.8125 -62.359375 C 6.550781 -63.617188 5.921875 -65.101562 5.921875 -66.8125 C 5.921875 -68.507812 6.550781 -69.988281 7.8125 -71.25 C 9.082031 -72.519531 10.566406 -73.15625 12.265625 -73.15625 C 13.972656 -73.15625 15.457031 -72.519531 16.71875 -71.25 C 17.976562 -69.988281 18.609375 -68.507812 18.609375 -66.8125 C 18.609375 -65.101562 17.976562 -63.617188 16.71875 -62.359375 C 15.457031 -61.097656 13.972656 -60.46875 12.265625 -60.46875 Z M 12.265625 -60.46875 "/></g></g></g><g fill="#f97316" fill-opacity="1"><g transform="translate(229.53839, 74.535753)"><g><path d="M 7.46875 0 L 7.46875 -30.1875 C 7.46875 -34.820312 8.503906 -38.878906 10.578125 -42.359375 C 12.660156 -45.835938 15.546875 -48.546875 19.234375 -50.484375 C 22.921875 -52.429688 27.113281 -53.40625 31.8125 -53.40625 C 36.59375 -53.40625 40.804688 -52.429688 44.453125 -50.484375 C 48.097656 -48.546875 50.960938 -45.835938 53.046875 -42.359375 C 55.128906 -38.878906 56.171875 -34.820312 56.171875 -30.1875 L 56.171875 0 L 46.75 0 L 46.75 -30.078125 C 46.75 -33.210938 46.050781 -35.921875 44.65625 -38.203125 C 43.257812 -40.492188 41.414062 -42.253906 39.125 -43.484375 C 36.84375 -44.710938 34.40625 -45.328125 31.8125 -45.328125 C 29.226562 -45.328125 26.789062 -44.710938 24.5 -43.484375 C 22.21875 -42.253906 20.375 -40.492188 18.96875 -38.203125 C 17.570312 -35.921875 16.875 -33.210938 16.875 -30.078125 L 16.875 0 Z M 7.46875 0 "/></g></g></g><g fill="#f97316" fill-opacity="1"><g transform="translate(293.173265, 74.535753)"><g><path d="M 25.265625 0 C 20.628906 0 17 -1.328125 14.375 -3.984375 C 11.75 -6.648438 10.4375 -10.265625 10.4375 -14.828125 L 10.4375 -65.28125 L 19.84375 -65.28125 L 19.84375 -15.453125 C 19.84375 -13.203125 20.472656 -11.410156 21.734375 -10.078125 C 23.003906 -8.742188 24.765625 -8.078125 27.015625 -8.078125 L 37.546875 -8.078125 L 37.546875 0 Z M 1.4375 -44.09375 L 1.4375 -52.171875 L 37.75 -52.171875 L 37.75 -44.09375 Z M 1.4375 -44.09375 "/></g></g></g><g fill="#f97316" fill-opacity="1"><g transform="translate(334.812158, 74.535753)"><g><path d="M 32.734375 0 C 27.347656 0 22.539062 -1.15625 18.3125 -3.46875 C 14.082031 -5.789062 10.738281 -8.910156 8.28125 -12.828125 C 5.832031 -16.753906 4.609375 -21.175781 4.609375 -26.09375 C 4.609375 -31 5.832031 -35.410156 8.28125 -39.328125 C 10.738281 -43.253906 14.082031 -46.375 18.3125 -48.6875 C 22.539062 -51.007812 27.347656 -52.171875 32.734375 -52.171875 L 38.875 -52.171875 L 38.875 -44.09375 L 32.4375 -44.09375 C 28.957031 -44.09375 25.832031 -43.289062 23.0625 -41.6875 C 20.300781 -40.082031 18.117188 -37.914062 16.515625 -35.1875 C 14.921875 -32.46875 14.125 -29.4375 14.125 -26.09375 C 14.125 -22.75 14.921875 -19.710938 16.515625 -16.984375 C 18.117188 -14.253906 20.300781 -12.085938 23.0625 -10.484375 C 25.832031 -8.878906 28.957031 -8.078125 32.4375 -8.078125 L 38.875 -8.078125 L 38.875 0 Z M 32.734375 0 "/></g></g></g></svg>