<svg xmlns="http://www.w3.org/2000/svg" xmlns:xlink="http://www.w3.org/1999/xlink" width="500" zoomAndPan="magnify" viewBox="0 0 375 74.999997" height="100" preserveAspectRatio="xMidYMid meet" version="1.0"><defs><g/><clipPath id="318ea12346"><path d="M 1.710938 0 L 69.960938 0 L 69.960938 54 L 1.710938 54 Z M 1.710938 0 " clip-rule="nonzero"/></clipPath><clipPath id="2c08069d2f"><path d="M 1.710938 24 L 52 24 L 52 75 L 1.710938 75 Z M 1.710938 24 " clip-rule="nonzero"/></clipPath></defs><g clip-path="url(#318ea12346)"><path fill="#27272a" d="M 8.113281 1.761719 C 6.101562 2.914062 4.515625 4.519531 3.410156 6.417969 C 2.304688 8.335938 1.710938 10.515625 1.710938 12.835938 L 1.710938 35.015625 C 1.710938 37.320312 2.304688 39.5 3.410156 41.417969 C 4.515625 43.316406 6.101562 44.921875 8.113281 46.089844 L 19.777344 52.832031 C 21.523438 53.847656 23.734375 53.253906 24.746094 51.511719 C 25.757812 49.765625 25.167969 47.554688 23.421875 46.542969 L 11.757812 39.796875 L 11.742188 39.796875 C 10.855469 39.285156 10.152344 38.597656 9.699219 37.804688 C 9.25 37.007812 9 36.058594 9 35.015625 L 9 12.835938 C 9 11.792969 9.25 10.84375 9.699219 10.0625 L 9.699219 10.046875 C 10.152344 9.253906 10.855469 8.570312 11.757812 8.054688 C 12.644531 7.542969 13.578125 7.292969 14.515625 7.292969 C 15.449219 7.292969 16.398438 7.542969 17.269531 8.054688 L 38.625 20.390625 L 38.640625 20.390625 L 60.007812 32.710938 C 60.898438 33.226562 61.582031 33.910156 62.050781 34.71875 C 62.5 35.515625 62.75 36.449219 62.75 37.507812 C 62.75 38.488281 62.53125 39.390625 62.144531 40.140625 C 62.113281 40.1875 62.082031 40.234375 62.066406 40.28125 C 61.597656 41.089844 60.898438 41.789062 60.023438 42.289062 C 58.28125 43.285156 57.6875 45.511719 58.683594 47.242188 C 59.683594 48.988281 61.910156 49.578125 63.636719 48.582031 C 65.664062 47.414062 67.265625 45.808594 68.355469 43.925781 C 68.402344 43.847656 68.449219 43.769531 68.480469 43.675781 C 69.507812 41.820312 70.054688 39.71875 70.054688 37.492188 C 70.054688 35.1875 69.464844 33.007812 68.355469 31.089844 L 68.355469 31.074219 C 67.265625 29.191406 65.664062 27.585938 63.636719 26.417969 L 42.300781 14.097656 L 20.914062 1.761719 C 18.890625 0.59375 16.710938 0.00390625 14.515625 0.00390625 C 12.332031 0.00390625 10.152344 0.59375 8.113281 1.761719 Z M 8.113281 1.761719 " fill-opacity="1" fill-rule="evenodd"/></g><g clip-path="url(#2c08069d2f)"><path fill="#ffffff" d="M 1.710938 56.757812 L 1.710938 62.164062 C 1.710938 64.46875 2.304688 66.648438 3.410156 68.566406 C 4.515625 70.480469 6.101562 72.085938 8.113281 73.238281 C 8.191406 73.285156 8.269531 73.332031 8.347656 73.363281 C 10.308594 74.453125 12.410156 74.996094 14.515625 74.996094 C 16.695312 74.996094 18.875 74.40625 20.898438 73.238281 L 44.855469 59.421875 C 46.878906 58.253906 48.484375 56.648438 49.574219 54.765625 L 49.574219 54.75 C 50.679688 52.832031 51.269531 50.652344 51.269531 48.347656 C 51.269531 46.042969 50.679688 43.863281 49.574219 41.945312 C 48.46875 40.046875 46.878906 38.441406 44.855469 37.273438 L 23.75 25.09375 C 23.171875 24.765625 22.566406 24.613281 21.941406 24.613281 C 20.679688 24.613281 19.464844 25.265625 18.796875 26.433594 C 17.800781 28.179688 18.390625 30.390625 20.136719 31.386719 L 41.242188 43.566406 C 42.128906 44.082031 42.828125 44.765625 43.28125 45.558594 C 43.734375 46.355469 43.980469 47.304688 43.980469 48.347656 C 43.980469 49.390625 43.734375 50.339844 43.28125 51.121094 C 42.8125 51.929688 42.113281 52.632812 41.242188 53.128906 L 17.285156 66.945312 C 16.398438 67.457031 15.464844 67.707031 14.515625 67.707031 C 13.625 67.707031 12.738281 67.488281 11.898438 67.039062 C 11.851562 67.007812 11.804688 66.976562 11.757812 66.945312 C 10.855469 66.414062 10.152344 65.730469 9.699219 64.953125 C 9.25 64.15625 9 63.207031 9 62.164062 L 9 56.757812 C 9 54.75 7.363281 53.113281 5.355469 53.113281 C 3.347656 53.113281 1.710938 54.734375 1.710938 56.757812 Z M 1.710938 56.757812 " fill-opacity="1" fill-rule="evenodd"/></g><g fill="#ffffff" fill-opacity="1"><g transform="translate(82.076185, 71.627923)"><g><path d="M 6.9375 0 L 6.9375 -69.34375 L 15.671875 -69.34375 L 15.671875 -28.125 L 28.96875 -28.125 L 41.703125 -48.453125 L 51.390625 -48.453125 L 37.625 -26.796875 C 42.175781 -25.460938 45.734375 -22.972656 48.296875 -19.328125 C 50.867188 -15.691406 52.15625 -11.46875 52.15625 -6.65625 L 52.15625 0 L 43.3125 0 L 43.3125 -6.65625 C 43.3125 -9.3125 42.726562 -11.679688 41.5625 -13.765625 C 40.394531 -15.859375 38.765625 -17.519531 36.671875 -18.75 C 34.578125 -19.988281 32.171875 -20.609375 29.453125 -20.609375 L 15.671875 -20.609375 L 15.671875 0 Z M 6.9375 0 "/></g></g></g><g fill="#ffffff" fill-opacity="1"><g transform="translate(139.736459, 71.627923)"><g><path d="M 31.546875 0 C 26.222656 0 21.5 -0.992188 17.375 -2.984375 C 13.257812 -4.984375 10.046875 -7.800781 7.734375 -11.4375 C 5.429688 -15.082031 4.28125 -19.34375 4.28125 -24.21875 C 4.28125 -29.03125 5.257812 -33.351562 7.21875 -37.1875 C 9.1875 -41.019531 11.910156 -44.046875 15.390625 -46.265625 C 18.867188 -48.484375 22.921875 -49.59375 27.546875 -49.59375 C 32.554688 -49.59375 36.722656 -48.515625 40.046875 -46.359375 C 43.367188 -44.203125 45.851562 -41.300781 47.5 -37.65625 C 49.144531 -34.019531 49.96875 -29.953125 49.96875 -25.453125 C 49.96875 -24.765625 49.953125 -24.039062 49.921875 -23.28125 C 49.890625 -22.519531 49.8125 -21.851562 49.6875 -21.28125 L 13.578125 -21.28125 C 13.898438 -18.300781 14.882812 -15.78125 16.53125 -13.71875 C 18.175781 -11.664062 20.28125 -10.113281 22.84375 -9.0625 C 25.40625 -8.019531 28.238281 -7.5 31.34375 -7.5 L 43.984375 -7.5 L 43.984375 0 Z M 13.484375 -27.453125 L 41.140625 -27.453125 C 41.140625 -28.660156 41.007812 -29.941406 40.75 -31.296875 C 40.5 -32.660156 40.054688 -33.988281 39.421875 -35.28125 C 38.785156 -36.582031 37.945312 -37.753906 36.90625 -38.796875 C 35.863281 -39.847656 34.566406 -40.691406 33.015625 -41.328125 C 31.460938 -41.960938 29.640625 -42.28125 27.546875 -42.28125 C 25.328125 -42.28125 23.378906 -41.847656 21.703125 -40.984375 C 20.023438 -40.128906 18.582031 -38.988281 17.375 -37.5625 C 16.175781 -36.144531 15.257812 -34.546875 14.625 -32.765625 C 14 -30.992188 13.617188 -29.222656 13.484375 -27.453125 Z M 13.484375 -27.453125 "/></g></g></g><g fill="#ffffff" fill-opacity="1"><g transform="translate(193.882023, 71.627923)"><g><path d="M 6.9375 0 L 6.9375 -48.453125 L 15.765625 -48.453125 L 15.765625 0 Z M 11.390625 -56.140625 C 9.804688 -56.140625 8.429688 -56.722656 7.265625 -57.890625 C 6.097656 -59.066406 5.515625 -60.445312 5.515625 -62.03125 C 5.515625 -63.613281 6.097656 -64.988281 7.265625 -66.15625 C 8.429688 -67.332031 9.804688 -67.921875 11.390625 -67.921875 C 12.972656 -67.921875 14.347656 -67.332031 15.515625 -66.15625 C 16.691406 -64.988281 17.28125 -63.613281 17.28125 -62.03125 C 17.28125 -60.445312 16.691406 -59.066406 15.515625 -57.890625 C 14.347656 -56.722656 12.972656 -56.140625 11.390625 -56.140625 Z M 11.390625 -56.140625 "/></g></g></g><g fill="#ffffff" fill-opacity="1"><g transform="translate(216.490169, 71.627923)"><g><path d="M 6.9375 0 L 6.9375 -28.03125 C 6.9375 -32.332031 7.898438 -36.097656 9.828125 -39.328125 C 11.765625 -42.554688 14.441406 -45.070312 17.859375 -46.875 C 21.273438 -48.6875 25.171875 -49.59375 29.546875 -49.59375 C 33.972656 -49.59375 37.878906 -48.6875 41.265625 -46.875 C 44.660156 -45.070312 47.320312 -42.554688 49.25 -39.328125 C 51.1875 -36.097656 52.15625 -32.332031 52.15625 -28.03125 L 52.15625 0 L 43.421875 0 L 43.421875 -27.9375 C 43.421875 -30.84375 42.769531 -33.359375 41.46875 -35.484375 C 40.164062 -37.609375 38.453125 -39.238281 36.328125 -40.375 C 34.210938 -41.507812 31.953125 -42.078125 29.546875 -42.078125 C 27.140625 -42.078125 24.875 -41.507812 22.75 -40.375 C 20.625 -39.238281 18.910156 -37.609375 17.609375 -35.484375 C 16.316406 -33.359375 15.671875 -30.84375 15.671875 -27.9375 L 15.671875 0 Z M 6.9375 0 "/></g></g></g><g fill="#ffffff" fill-opacity="1"><g transform="translate(275.575323, 71.627923)"><g><path d="M 23.46875 0 C 19.15625 0 15.78125 -1.234375 13.34375 -3.703125 C 10.90625 -6.171875 9.6875 -9.53125 9.6875 -13.78125 L 9.6875 -60.609375 L 18.4375 -60.609375 L 18.4375 -14.34375 C 18.4375 -12.25 19.019531 -10.582031 20.1875 -9.34375 C 21.351562 -8.113281 22.984375 -7.5 25.078125 -7.5 L 34.859375 -7.5 L 34.859375 0 Z M 1.328125 -40.9375 L 1.328125 -48.453125 L 35.0625 -48.453125 L 35.0625 -40.9375 Z M 1.328125 -40.9375 "/></g></g></g><g fill="#ffffff" fill-opacity="1"><g transform="translate(314.237147, 71.627923)"><g><path d="M 30.40625 0 C 25.394531 0 20.925781 -1.070312 17 -3.21875 C 13.070312 -5.375 9.96875 -8.273438 7.6875 -11.921875 C 5.414062 -15.566406 4.28125 -19.664062 4.28125 -24.21875 C 4.28125 -28.78125 5.414062 -32.878906 7.6875 -36.515625 C 9.96875 -40.160156 13.070312 -43.0625 17 -45.21875 C 20.925781 -47.375 25.394531 -48.453125 30.40625 -48.453125 L 36.09375 -48.453125 L 36.09375 -40.9375 L 30.109375 -40.9375 C 26.878906 -40.9375 23.984375 -40.191406 21.421875 -38.703125 C 18.859375 -37.222656 16.832031 -35.210938 15.34375 -32.671875 C 13.851562 -30.140625 13.109375 -27.320312 13.109375 -24.21875 C 13.109375 -21.113281 13.851562 -18.296875 15.34375 -15.765625 C 16.832031 -13.234375 18.859375 -11.222656 21.421875 -9.734375 C 23.984375 -8.242188 26.878906 -7.5 30.109375 -7.5 L 36.09375 -7.5 L 36.09375 0 Z M 30.40625 0 "/></g></g></g></svg>